<?xml version="1.0" standalone="no"?>
<svg id="SvgjsSvg1001" width="800" height="700" xmlns="http://www.w3.org/2000/svg" version="1.1"
     class="svg-paper"
     viewBox="0 0 600 600">
    <title id="SvgjsTitle9299">x=min((y-cos(cos(y))),(x-sin(sin(y))))|y=y|dTest=0.1|sd=0.05|sm=0.15|ts=0.1 | generated
        with FlowLines
    </title>
    <rect id="SvgjsRect9300" width="600" height="600" fill="#ffffff"/>
    <g id="SvgjsG9301">
        <polyline id="SvgjsPolyline9302"
                  points="598.12,300 460.13,300.23 430.13,300.71 406.15,301.69 394.18,302.56 382.25,303.79 364.46,306.53 346.91,310.51 335.38,313.85 324.02,317.69 312.8,321.96 296.23,328.99 279.91,336.59 258.45,347.32 231.96,361.41 211.01,373.11 190.28,385.2 169.81,397.73 144.68,414.12 125.03,427.89 101.06,445.93 68.3,472.22 54.02,483.17 29.74,500.78 0,521.08"
                  fill="none" stroke="#f1f1f1" stroke-width="2"/>
        <polyline id="SvgjsPolyline9303"
                  points="598.12,297 586.22,295.47 574.49,293 568.77,291.19 563.26,288.83 558.13,285.72 553.68,281.72 550.2,276.84 547.84,271.34 546.46,265.5 545.84,259.54 545.77,253.54 546.1,247.55 546.74,241.59 548.77,229.76 550.11,223.91 551.64,218.11 555.29,206.68 559.7,195.53 564.82,184.68 567.63,179.37 573.66,169 583.58,153.98 590.62,144.27 597.92,134.74"
                  fill="none" stroke="#f1f1f1" stroke-width="2"/>
        <polyline id="SvgjsPolyline9304"
                  points="568.12,297 556.22,295.47 550.32,294.39 544.49,293 538.77,291.2 533.25,288.84 528.13,285.74 523.67,281.74 520.19,276.87 517.82,271.36 516.44,265.53 515.82,259.57 515.74,253.57 516.07,247.58 516.71,241.61 517.61,235.68 520.07,223.94 521.6,218.14 525.25,206.71 529.66,195.55 532.14,190.08 534.78,184.7 540.54,174.17 550.13,158.94 560.58,144.29 575.34,125.37 598.25,97.6"
                  fill="none" stroke="#f1f1f1" stroke-width="2"/>
        <polyline id="SvgjsPolyline9305"
                  points="538.12,297.01 526.22,295.48 520.32,294.41 514.48,293.02 508.76,291.23 503.24,288.88 498.11,285.78 493.64,281.8 490.14,276.94 487.76,271.44 486.37,265.61 485.74,259.65 485.66,253.65 485.98,247.66 486.62,241.69 487.52,235.76 489.97,224.02 493.22,212.47 495.14,206.79 497.25,201.17 502.02,190.16 504.66,184.77 510.41,174.24 520,159.01 530.45,144.36 541.45,130.11 598.57,60.56"
                  fill="none" stroke="#f1f1f1" stroke-width="2"/>
        <polyline id="SvgjsPolyline9306"
                  points="508.12,297.04 496.22,295.53 490.31,294.46 484.47,293.09 478.74,291.32 473.22,288.99 468.06,285.94 463.55,281.99 460.01,277.16 457.58,271.69 456.15,265.87 455.49,259.91 455.39,253.91 455.7,247.92 457.21,236.02 459.65,224.27 462.88,212.72 464.79,207.03 469.18,195.86 474.28,185 480.02,174.47 483.1,169.31 492.99,154.28 500.03,144.56 511.03,130.32 564.39,65.44 597.86,23.07"
                  fill="none" stroke="#f1f1f1" stroke-width="2"/>
        <polyline id="SvgjsPolyline9307"
                  points="478.11,297.12 466.21,295.65 460.3,294.62 454.44,293.3 448.69,291.59 443.13,289.35 437.91,286.4 433.3,282.59 429.61,277.87 427.03,272.47 425.47,266.68 424.72,260.73 424.55,254.73 424.81,248.74 425.4,242.77 427.34,230.93 430.12,219.26 433.7,207.81 438.03,196.62 443.09,185.74 445.86,180.42 448.78,175.18 455.02,164.93 465.17,150.06 472.32,140.43 483.44,126.27 536.81,61.41 585.18,0.22"
                  fill="none" stroke="#f1f1f1" stroke-width="2"/>
        <polyline id="SvgjsPolyline9308"
                  points="448.09,297.37 436.17,296.04 430.24,295.11 424.36,293.93 418.55,292.41 412.89,290.43 407.5,287.82 402.57,284.41 398.43,280.08 395.35,274.95 393.36,269.3 392.28,263.4 391.87,257.42 391.95,251.42 392.4,245.44 394.13,233.57 396.73,221.85 400.13,210.35 402.12,204.69 406.66,193.58 411.9,182.79 414.76,177.51 426.89,156.8 433.37,146.71 440.17,136.82 450.97,122.43 500.53,62.19 548.9,1"
                  fill="none" stroke="#f1f1f1" stroke-width="2"/>
        <polyline id="SvgjsPolyline9309"
                  points="393.96,299.56 357.98,298.64 345.99,297.99 334.04,297.01 322.13,295.48 316.23,294.4 310.4,293.02 304.67,291.23 299.16,288.87 283.87,279.39 267.95,271 251.66,263.34 229.68,253.72 179.71,233.24 45.72,180.5 1.15,162.68"
                  fill="none" stroke="#f1f1f1" stroke-width="2"/>
        <polyline id="SvgjsPolyline9310" points="358.02,304.77 352.07,305.59" fill="none" stroke="#f1f1f1"
                  stroke-width="2"/>
        <polyline id="SvgjsPolyline9311" points="346.21,307.6 340.32,308.77" fill="none" stroke="#f1f1f1"
                  stroke-width="2"/>
        <polyline id="SvgjsPolyline9312"
                  points="586.7,292.51 581.03,290.55 575.62,287.98 570.66,284.62 566.47,280.34 563.32,275.25 561.28,269.62 560.15,263.73 559.71,257.75 559.77,251.75 560.21,245.76 561.9,233.89 564.49,222.17 567.86,210.66 572.01,199.4 576.89,188.44 582.44,177.8 588.55,167.47 598.55,152.52"
                  fill="none" stroke="#f1f1f1" stroke-width="2"/>
        <polyline id="SvgjsPolyline9313" points="595.55,132.89 599.28,128.19" fill="none" stroke="#f1f1f1"
                  stroke-width="2"/>
        <polyline id="SvgjsPolyline9314"
                  points="556.7,292.51 551.03,290.56 545.61,287.99 540.65,284.63 536.46,280.36 533.31,275.26 531.26,269.63 530.14,263.74 529.7,257.76 529.76,251.76 530.19,245.78 530.91,239.82 533.07,228.02 536.06,216.4 539.82,205.01 544.34,193.9 546.87,188.45 552.41,177.81 561.76,162.44 572.04,147.66 582.94,133.34 598.03,114.67"
                  fill="none" stroke="#f1f1f1" stroke-width="2"/>
        <polyline id="SvgjsPolyline9315" points="595.95,95.68 599.79,91.07" fill="none" stroke="#f1f1f1"
                  stroke-width="2"/>
        <polyline id="SvgjsPolyline9316" points="526.7,292.52 521.03,290.57" fill="none" stroke="#f1f1f1"
                  stroke-width="2"/>
        <polyline id="SvgjsPolyline9317"
                  points="515.27,290.13 509.92,287.43 505.07,283.9 501.06,279.45 498.12,274.23 496.27,268.54 495.29,262.62 494.95,256.63 495.09,250.64 495.58,244.66 497.37,232.79 500.03,221.1 503.48,209.6 505.49,203.95 510.08,192.87 512.64,187.44 518.24,176.83 524.4,166.53 534.46,151.61 541.57,141.95 552.65,127.76 598.46,72.21"
                  fill="none" stroke="#f1f1f1" stroke-width="2"/>
        <polyline id="SvgjsPolyline9318" points="596.23,58.69 599.97,54" fill="none" stroke="#f1f1f1" stroke-width="2"/>
        <polyline id="SvgjsPolyline9319" points="496.69,292.56 491.01,290.63" fill="none" stroke="#f1f1f1"
                  stroke-width="2"/>
        <polyline id="SvgjsPolyline9320"
                  points="485.25,290.19 479.89,287.51 475.03,284.01 470.99,279.59 468.02,274.39 466.13,268.7 465.13,262.79 464.78,256.8 464.91,250.8 465.39,244.82 466.16,238.87 468.39,227.08 469.81,221.26 473.25,209.76 475.26,204.11 479.84,193.02 485.12,182.24 487.99,176.98 494.14,166.67 500.75,156.66 511.3,142.08 529.93,118.57 571.97,67.69 598.09,34.8"
                  fill="none" stroke="#f1f1f1" stroke-width="2"/>
        <polyline id="SvgjsPolyline9321" points="466.32,288.38 461.28,285.13" fill="none" stroke="#f1f1f1"
                  stroke-width="2"/>
        <polyline id="SvgjsPolyline9322" points="595.5,21.22 599.21,16.5" fill="none" stroke="#f1f1f1"
                  stroke-width="2"/>
        <polyline id="SvgjsPolyline9323"
                  points="455.19,290.39 449.8,287.78 444.88,284.35 440.76,280.01 437.69,274.87 435.72,269.21 434.65,263.31 434.25,257.33 434.34,251.33 435.54,239.39 436.53,233.47 439.14,221.76 440.74,215.98 444.54,204.6 446.72,199.01 451.62,188.06 457.19,177.43 463.32,167.12 469.91,157.09 480.44,142.5 495.27,123.62 544.87,63.43 593.24,2.24"
                  fill="none" stroke="#f1f1f1" stroke-width="2"/>
        <polyline id="SvgjsPolyline9324"
                  points="411.76,293.21 406.02,291.47 400.47,289.19 395.28,286.2 390.71,282.32 387.09,277.56 384.58,272.12 383.08,266.32 382.37,260.36 382.23,254.36 382.51,248.37 383.99,236.47 385.08,230.57 387.89,218.9 391.49,207.46 395.85,196.28 405.81,174.45 413.89,158.36 419.69,147.86 425.85,137.56 435.8,122.56 442.87,112.87 450.26,103.41 484.52,61.68 532.9,0.49"
                  fill="none" stroke="#f1f1f1" stroke-width="2"/>
        <polyline id="SvgjsPolyline9325"
                  points="346.19,295 340.32,293.79 334.53,292.22 328.89,290.18 323.52,287.5 318.67,283.99 314.63,279.57 308.68,269.16 305.26,264.23 297.63,254.98 289.4,246.24 280.86,237.81 267.74,225.49 223.3,185.18 201.41,164.67 184.38,147.75 168.06,130.17 156.43,116.43 149.03,106.98 141.92,97.31 131.81,82.42 122.28,67.15 113.18,51.62 86.97,4.41"
                  fill="none" stroke="#f1f1f1" stroke-width="2"/>
        <polyline id="SvgjsPolyline9326" points="322.61,292.52 316.94,290.57" fill="none" stroke="#f1f1f1"
                  stroke-width="2"/>
        <polyline id="SvgjsPolyline9327"
                  points="311.18,290.13 305.83,287.42 300.99,283.89 296.61,279.79 291.99,275.97 282.25,268.97 267.01,259.39 251.4,250.42 214.38,230.58 123.65,183.98 81.13,161.71 39.02,138.68 2.71,117.57"
                  fill="none" stroke="#f1f1f1" stroke-width="2"/>
        <polyline id="SvgjsPolyline9328" points="595.71,112.76 599.54,108.14" fill="none" stroke="#f1f1f1"
                  stroke-width="2"/>
        <polyline id="SvgjsPolyline9329"
                  points="459.44,287.5 454.58,283.99 450.54,279.57 447.58,274.36 445.7,268.67 444.7,262.76 444.36,256.77 444.48,250.78 445.74,238.85 447.97,227.06 451.02,215.46 454.85,204.09 459.43,193 464.7,182.22 470.59,171.76 476.98,161.61 483.78,151.72 494.54,137.29"
                  fill="none" stroke="#f1f1f1" stroke-width="2"/>
    </g>
</svg>